<svg xmlns="http://www.w3.org/2000/svg" width="64" height="64" viewBox="0 0 64 64" fill="none">
  <!-- Background -->
  <rect width="64" height="64" rx="12" fill="#7f54b3"/>
  
  <!-- Chart bars -->
  <rect x="14" y="36" width="8" height="14" rx="2" fill="white"/>
  <rect x="28" y="26" width="8" height="24" rx="2" fill="white"/>
  <rect x="42" y="16" width="8" height="34" rx="2" fill="white"/>
  
  <!-- Dollar sign -->
  <path d="M32 12C32.8284 12 33.5 12.6716 33.5 13.5V15.5C36.5376 16.0816 39 18.7929 39 22C39 22.8284 38.3284 23.5 37.5 23.5C36.6716 23.5 36 22.8284 36 22C36 20.067 34.433 18.5 32.5 18.5H31.5C29.567 18.5 28 20.067 28 22C28 23.933 29.567 25.5 31.5 25.5H32.5C36.366 25.5 39.5 28.634 39.5 32.5C39.5 35.7071 37.0376 38.4184 34 39V41C34 41.8284 33.3284 42.5 32.5 42.5C31.6716 42.5 31 41.8284 31 41V39C27.9624 38.4184 25.5 35.7071 25.5 32.5C25.5 31.6716 26.1716 31 27 31C27.8284 31 28.5 31.6716 28.5 32.5C28.5 34.433 30.067 36 32 36H33C34.933 36 36.5 34.433 36.5 32.5C36.5 30.567 34.933 29 33 29H32C28.134 29 25 25.866 25 22C25 18.7929 27.4624 16.0816 30.5 15.5V13.5C30.5 12.6716 31.1716 12 32 12Z" fill="white"/>
</svg> 